<!--
  #%L
  prolobjectlink-jpp-javax
  %%
  Copyright (C) 2020 Prolobjectlink Project
  %%
  This program is free software: you can redistribute it and/or modify
  it under the terms of the GNU Lesser General Public License as
  published by the Free Software Foundation, either version 2.1 of the
  License, or (at your option) any later version.
  
  This program is distributed in the hope that it will be useful,
  but WITHOUT ANY WARRANTY; without even the implied warranty of
  MERCHANTABILITY or FITNESS FOR A PARTICULAR PURPOSE.  See the
  GNU General Lesser Public License for more details.
  
  You should have received a copy of the GNU General Lesser Public
  License along with this program.  If not, see
  <http://www.gnu.org/licenses/lgpl-2.1.html>.
  #L%
  -->
<svg xmlns="http://www.w3.org/2000/svg" viewBox="0 0 496 512"><path d="M248 8C111 8 0 119 0 256s111 248 248 248 248-111 248-248S385 8 248 8zm0 448c-110.3 0-200-89.7-200-200S137.7 56 248 56s200 89.7 200 200-89.7 200-200 200zm88-304c-39.8 0-72 32.2-72 72s32.2 72 72 72 72-32.2 72-72-32.2-72-72-72zm0 112c-22.1 0-40-17.9-40-40 0-13.6 7.3-25.1 17.7-32.3-1 2.6-1.7 5.3-1.7 8.3 0 13.3 10.7 24 24 24s24-10.7 24-24c0-2.9-.7-5.7-1.7-8.3 10.4 7.2 17.7 18.7 17.7 32.3 0 22.1-17.9 40-40 40zm-104-40c0-39.8-32.2-72-72-72s-72 32.2-72 72 32.2 72 72 72 72-32.2 72-72zm-112 0c0-13.6 7.3-25.1 17.7-32.3-1 2.6-1.7 5.3-1.7 8.3 0 13.3 10.7 24 24 24s24-10.7 24-24c0-2.9-.7-5.7-1.7-8.3 10.4 7.2 17.7 18.7 17.7 32.3 0 22.1-17.9 40-40 40s-40-17.9-40-40zm192 128H184c-13.2 0-24 10.8-24 24s10.8 24 24 24h128c13.2 0 24-10.8 24-24s-10.8-24-24-24z"/></svg>
