<!--
  #%L
  prolobjectlink-jpp-javax
  %%
  Copyright (C) 2020 Prolobjectlink Project
  %%
  This program is free software: you can redistribute it and/or modify
  it under the terms of the GNU Lesser General Public License as
  published by the Free Software Foundation, either version 2.1 of the
  License, or (at your option) any later version.
  
  This program is distributed in the hope that it will be useful,
  but WITHOUT ANY WARRANTY; without even the implied warranty of
  MERCHANTABILITY or FITNESS FOR A PARTICULAR PURPOSE.  See the
  GNU General Lesser Public License for more details.
  
  You should have received a copy of the GNU General Lesser Public
  License along with this program.  If not, see
  <http://www.gnu.org/licenses/lgpl-2.1.html>.
  #L%
  -->
<svg xmlns="http://www.w3.org/2000/svg" viewBox="0 0 448 512"><path d="M432 160H16a16 16 0 0 0-16 16v32a16 16 0 0 0 16 16h416a16 16 0 0 0 16-16v-32a16 16 0 0 0-16-16zm0 256H16a16 16 0 0 0-16 16v32a16 16 0 0 0 16 16h416a16 16 0 0 0 16-16v-32a16 16 0 0 0-16-16zM108.1 96h231.81A12.09 12.09 0 0 0 352 83.9V44.09A12.09 12.09 0 0 0 339.91 32H108.1A12.09 12.09 0 0 0 96 44.09V83.9A12.1 12.1 0 0 0 108.1 96zm231.81 256A12.09 12.09 0 0 0 352 339.9v-39.81A12.09 12.09 0 0 0 339.91 288H108.1A12.09 12.09 0 0 0 96 300.09v39.81a12.1 12.1 0 0 0 12.1 12.1z"/></svg>
