<!--
  #%L
  prolobjectlink-jpp-javax
  %%
  Copyright (C) 2020 Prolobjectlink Project
  %%
  This program is free software: you can redistribute it and/or modify
  it under the terms of the GNU Lesser General Public License as
  published by the Free Software Foundation, either version 2.1 of the
  License, or (at your option) any later version.
  
  This program is distributed in the hope that it will be useful,
  but WITHOUT ANY WARRANTY; without even the implied warranty of
  MERCHANTABILITY or FITNESS FOR A PARTICULAR PURPOSE.  See the
  GNU General Lesser Public License for more details.
  
  You should have received a copy of the GNU General Lesser Public
  License along with this program.  If not, see
  <http://www.gnu.org/licenses/lgpl-2.1.html>.
  #L%
  -->
<svg xmlns="http://www.w3.org/2000/svg" viewBox="0 0 320 512"><path d="M8 287.88c0 51.64 22.14 73.83 56 84.6V416h192v-43.52c33.86-10.77 56-33 56-84.6 0-30.61-10.73-67.1-26.69-102.56L185 285.65a8 8 0 0 1-11.31 0l-11.31-11.31a8 8 0 0 1 0-11.31L270.27 155.1c-20.8-37.91-46.47-72.1-70.87-92.59C213.4 59.09 224 47.05 224 32a32 32 0 0 0-32-32h-64a32 32 0 0 0-32 32c0 15 10.6 27.09 24.6 30.51C67.81 106.8 8 214.5 8 287.88zM304 448H16a16 16 0 0 0-16 16v32a16 16 0 0 0 16 16h288a16 16 0 0 0 16-16v-32a16 16 0 0 0-16-16z"/></svg>
