<!--
  #%L
  prolobjectlink-jpp-javax
  %%
  Copyright (C) 2020 Prolobjectlink Project
  %%
  This program is free software: you can redistribute it and/or modify
  it under the terms of the GNU Lesser General Public License as
  published by the Free Software Foundation, either version 2.1 of the
  License, or (at your option) any later version.
  
  This program is distributed in the hope that it will be useful,
  but WITHOUT ANY WARRANTY; without even the implied warranty of
  MERCHANTABILITY or FITNESS FOR A PARTICULAR PURPOSE.  See the
  GNU General Lesser Public License for more details.
  
  You should have received a copy of the GNU General Lesser Public
  License along with this program.  If not, see
  <http://www.gnu.org/licenses/lgpl-2.1.html>.
  #L%
  -->
<svg xmlns="http://www.w3.org/2000/svg" viewBox="0 0 320 512"><path d="M105.1 224H80a16 16 0 0 0-16 16v32a16 16 0 0 0 16 16h16v5.49c0 44-4.14 86.6-24 122.51h176c-19.89-35.91-24-78.51-24-122.51V288h16a16 16 0 0 0 16-16v-32a16 16 0 0 0-16-16h-25.1c29.39-18.38 49.1-50.78 49.1-88a104 104 0 0 0-208 0c0 37.22 19.71 69.62 49.1 88zM304 448H16a16 16 0 0 0-16 16v32a16 16 0 0 0 16 16h288a16 16 0 0 0 16-16v-32a16 16 0 0 0-16-16z"/></svg>
