<!--
  #%L
  prolobjectlink-jpp-javax
  %%
  Copyright (C) 2020 Prolobjectlink Project
  %%
  This program is free software: you can redistribute it and/or modify
  it under the terms of the GNU Lesser General Public License as
  published by the Free Software Foundation, either version 2.1 of the
  License, or (at your option) any later version.
  
  This program is distributed in the hope that it will be useful,
  but WITHOUT ANY WARRANTY; without even the implied warranty of
  MERCHANTABILITY or FITNESS FOR A PARTICULAR PURPOSE.  See the
  GNU General Lesser Public License for more details.
  
  You should have received a copy of the GNU General Lesser Public
  License along with this program.  If not, see
  <http://www.gnu.org/licenses/lgpl-2.1.html>.
  #L%
  -->
<svg xmlns="http://www.w3.org/2000/svg" viewBox="0 0 384 512"><path d="M368 32h-56a16 16 0 0 0-16 16v48h-48V48a16 16 0 0 0-16-16h-80a16 16 0 0 0-16 16v48H88.1V48a16 16 0 0 0-16-16H16A16 16 0 0 0 0 48v176l64 32c0 48.33-1.54 95-13.21 160h282.42C321.54 351 320 303.72 320 256l64-32V48a16 16 0 0 0-16-16zM224 320h-64v-64a32 32 0 0 1 64 0zm144 128H16a16 16 0 0 0-16 16v32a16 16 0 0 0 16 16h352a16 16 0 0 0 16-16v-32a16 16 0 0 0-16-16z"/></svg>
