<!--
  #%L
  prolobjectlink-jpp-javax
  %%
  Copyright (C) 2020 Prolobjectlink Project
  %%
  This program is free software: you can redistribute it and/or modify
  it under the terms of the GNU Lesser General Public License as
  published by the Free Software Foundation, either version 2.1 of the
  License, or (at your option) any later version.
  
  This program is distributed in the hope that it will be useful,
  but WITHOUT ANY WARRANTY; without even the implied warranty of
  MERCHANTABILITY or FITNESS FOR A PARTICULAR PURPOSE.  See the
  GNU General Lesser Public License for more details.
  
  You should have received a copy of the GNU General Lesser Public
  License along with this program.  If not, see
  <http://www.gnu.org/licenses/lgpl-2.1.html>.
  #L%
  -->
<svg xmlns="http://www.w3.org/2000/svg" viewBox="0 0 512 512"><path d="M255.9.2h-64v64h64zM0 64.17v64h64v-64zM128 .2H64v64h64zm64 255.9v64h64v-64zM0 192.12v64h64v-64zM383.85.2h-64v64h64zm128 0h-64v64h64zM128 256.1H64v64h64zM511.8 448v-64h-64v64zm0-128v-64h-64v64zM383.85 512h64v-64h-64zm128-319.88v-64h-64v64zM128 512h64v-64h-64zM0 512h64v-64H0zm255.9 0h64v-64h-64zM0 320.07v64h64v-64zm319.88-191.92v-64h-64v64zm-64 128h64v-64h-64zm-64 128v64h64v-64zm128-64h64v-64h-64zm0-127.95h64v-64h-64zm0 191.93v64h64v-64zM64 384.05v64h64v-64zm128-255.9v-64h-64v64zm191.92 255.9h64v-64h-64zm-128-191.93v-64h-64v64zm128-127.95v64h64v-64zm-128 255.9v64h64v-64zm-64-127.95H128v64h64zm191.92 64h64v-64h-64zM128 128.15H64v64h64zm0 191.92v64h64v-64z"/></svg>
