<!--
  #%L
  prolobjectlink-jpp-javax
  %%
  Copyright (C) 2020 Prolobjectlink Project
  %%
  This program is free software: you can redistribute it and/or modify
  it under the terms of the GNU Lesser General Public License as
  published by the Free Software Foundation, either version 2.1 of the
  License, or (at your option) any later version.
  
  This program is distributed in the hope that it will be useful,
  but WITHOUT ANY WARRANTY; without even the implied warranty of
  MERCHANTABILITY or FITNESS FOR A PARTICULAR PURPOSE.  See the
  GNU General Lesser Public License for more details.
  
  You should have received a copy of the GNU General Lesser Public
  License along with this program.  If not, see
  <http://www.gnu.org/licenses/lgpl-2.1.html>.
  #L%
  -->
<svg xmlns="http://www.w3.org/2000/svg" viewBox="0 0 512 512"><path d="M488 352h-40V96c0-17.67-14.33-32-32-32H192v96h160v328c0 13.25 10.75 24 24 24h48c13.25 0 24-10.75 24-24v-40h40c13.25 0 24-10.75 24-24v-48c0-13.26-10.75-24-24-24zM160 24c0-13.26-10.75-24-24-24H88C74.75 0 64 10.74 64 24v40H24C10.75 64 0 74.74 0 88v48c0 13.25 10.75 24 24 24h40v256c0 17.67 14.33 32 32 32h224v-96H160V24z"/></svg>
