<!--
  #%L
  prolobjectlink-jpp-javax
  %%
  Copyright (C) 2020 Prolobjectlink Project
  %%
  This program is free software: you can redistribute it and/or modify
  it under the terms of the GNU Lesser General Public License as
  published by the Free Software Foundation, either version 2.1 of the
  License, or (at your option) any later version.
  
  This program is distributed in the hope that it will be useful,
  but WITHOUT ANY WARRANTY; without even the implied warranty of
  MERCHANTABILITY or FITNESS FOR A PARTICULAR PURPOSE.  See the
  GNU General Lesser Public License for more details.
  
  You should have received a copy of the GNU General Lesser Public
  License along with this program.  If not, see
  <http://www.gnu.org/licenses/lgpl-2.1.html>.
  #L%
  -->
<svg xmlns="http://www.w3.org/2000/svg" viewBox="0 0 512 512"><path d="M496 96h-64l-7.16-14.31A32 32 0 0 0 396.22 64H342.6l-27.28-27.28C305.23 26.64 288 33.78 288 48.03v149.84l128 45.71V208h32c35.35 0 64-28.65 64-64v-32c0-8.84-7.16-16-16-16zm-112 48c-8.84 0-16-7.16-16-16s7.16-16 16-16 16 7.16 16 16-7.16 16-16 16zM96 224c-17.64 0-32-14.36-32-32 0-17.67-14.33-32-32-32S0 174.33 0 192c0 41.66 26.83 76.85 64 90.1V496c0 8.84 7.16 16 16 16h64c8.84 0 16-7.16 16-16V384h160v112c0 8.84 7.16 16 16 16h64c8.84 0 16-7.16 16-16V277.55L266.05 224H96z"/></svg>
