<!--
  #%L
  prolobjectlink-jpp-javax
  %%
  Copyright (C) 2020 Prolobjectlink Project
  %%
  This program is free software: you can redistribute it and/or modify
  it under the terms of the GNU Lesser General Public License as
  published by the Free Software Foundation, either version 2.1 of the
  License, or (at your option) any later version.
  
  This program is distributed in the hope that it will be useful,
  but WITHOUT ANY WARRANTY; without even the implied warranty of
  MERCHANTABILITY or FITNESS FOR A PARTICULAR PURPOSE.  See the
  GNU General Lesser Public License for more details.
  
  You should have received a copy of the GNU General Lesser Public
  License along with this program.  If not, see
  <http://www.gnu.org/licenses/lgpl-2.1.html>.
  #L%
  -->
<svg xmlns="http://www.w3.org/2000/svg" viewBox="0 0 576 512"><path d="M458.08 120.88l102.39-61.43c15.16-9.09 20.06-28.75 10.97-43.91C562.34.39 542.7-4.53 527.53 4.57l-160.69 96.41A629.32 629.32 0 0 0 288 96C128.94 96 0 153.31 0 224v160.83c0 30.46 24.03 58.4 64 80.37v-96.37c0-17.6 14.4-32 32-32s32 14.4 32 32v122.41c37.4 11.13 81 18.44 128 20.75V400.84c0-17.6 14.4-32 32-32s32 14.4 32 32V512c47-2.31 90.6-9.62 128-20.75V368.84c0-17.6 14.4-32 32-32s32 14.4 32 32v96.37c39.97-21.97 64-49.91 64-80.37V224.01c-.01-42.38-46.54-79.84-117.92-103.13zM288 304c-132.55 0-240-35.82-240-80s107.45-80 240-80c2.34 0 4.62.1 6.94.12l-87.41 52.44c-15.16 9.09-20.06 28.75-10.97 43.91 9.56 15.93 29.51 19.61 43.91 10.97l162.71-97.62C477.55 167.41 528 193.74 528 224.01 528 268.19 420.54 304 288 304z"/></svg>
