<!--
  #%L
  prolobjectlink-jpp-javax
  %%
  Copyright (C) 2020 Prolobjectlink Project
  %%
  This program is free software: you can redistribute it and/or modify
  it under the terms of the GNU Lesser General Public License as
  published by the Free Software Foundation, either version 2.1 of the
  License, or (at your option) any later version.
  
  This program is distributed in the hope that it will be useful,
  but WITHOUT ANY WARRANTY; without even the implied warranty of
  MERCHANTABILITY or FITNESS FOR A PARTICULAR PURPOSE.  See the
  GNU General Lesser Public License for more details.
  
  You should have received a copy of the GNU General Lesser Public
  License along with this program.  If not, see
  <http://www.gnu.org/licenses/lgpl-2.1.html>.
  #L%
  -->
<svg xmlns="http://www.w3.org/2000/svg" viewBox="0 0 512 512"><path d="M497.941 273.941c18.745-18.745 18.745-49.137 0-67.882l-160-160c-18.745-18.745-49.136-18.746-67.883 0l-256 256c-18.745 18.745-18.745 49.137 0 67.882l96 96A48.004 48.004 0 0 0 144 480h356c6.627 0 12-5.373 12-12v-40c0-6.627-5.373-12-12-12H355.883l142.058-142.059zm-302.627-62.627l137.373 137.373L265.373 416H150.628l-80-80 124.686-124.686z"/></svg>
