<!--
  #%L
  prolobjectlink-jpp-javax
  %%
  Copyright (C) 2020 Prolobjectlink Project
  %%
  This program is free software: you can redistribute it and/or modify
  it under the terms of the GNU Lesser General Public License as
  published by the Free Software Foundation, either version 2.1 of the
  License, or (at your option) any later version.
  
  This program is distributed in the hope that it will be useful,
  but WITHOUT ANY WARRANTY; without even the implied warranty of
  MERCHANTABILITY or FITNESS FOR A PARTICULAR PURPOSE.  See the
  GNU General Lesser Public License for more details.
  
  You should have received a copy of the GNU General Lesser Public
  License along with this program.  If not, see
  <http://www.gnu.org/licenses/lgpl-2.1.html>.
  #L%
  -->
<svg xmlns="http://www.w3.org/2000/svg" viewBox="0 0 384 512"><path d="M384 121.941V128H256V0h6.059a24 24 0 0 1 16.97 7.029l97.941 97.941a24.002 24.002 0 0 1 7.03 16.971zM248 160c-13.2 0-24-10.8-24-24V0H24C10.745 0 0 10.745 0 24v464c0 13.255 10.745 24 24 24h336c13.255 0 24-10.745 24-24V160H248zm-135.455 16c26.51 0 48 21.49 48 48s-21.49 48-48 48-48-21.49-48-48 21.491-48 48-48zm208 240h-256l.485-48.485L104.545 328c4.686-4.686 11.799-4.201 16.485.485L160.545 368 264.06 264.485c4.686-4.686 12.284-4.686 16.971 0L320.545 304v112z"/></svg>
