<!--
  #%L
  prolobjectlink-jpp-javax
  %%
  Copyright (C) 2020 Prolobjectlink Project
  %%
  This program is free software: you can redistribute it and/or modify
  it under the terms of the GNU Lesser General Public License as
  published by the Free Software Foundation, either version 2.1 of the
  License, or (at your option) any later version.
  
  This program is distributed in the hope that it will be useful,
  but WITHOUT ANY WARRANTY; without even the implied warranty of
  MERCHANTABILITY or FITNESS FOR A PARTICULAR PURPOSE.  See the
  GNU General Lesser Public License for more details.
  
  You should have received a copy of the GNU General Lesser Public
  License along with this program.  If not, see
  <http://www.gnu.org/licenses/lgpl-2.1.html>.
  #L%
  -->
<svg xmlns="http://www.w3.org/2000/svg" viewBox="0 0 512 512"><path d="M509.34 307.25C504.28 295.56 492.75 288 480 288h-64V80c0-22-18-40-40-40s-40 18-40 40v134c0 5.52-4.48 10-10 10h-20c-5.52 0-10-4.48-10-10V40c0-22-18-40-40-40s-40 18-40 40v174c0 5.52-4.48 10-10 10h-20c-5.52 0-10-4.48-10-10V80c0-22-18-40-40-40S96 58 96 80v208H32c-12.75 0-24.28 7.56-29.34 19.25a31.966 31.966 0 0 0 5.94 34.58l102.69 110.03C146.97 490.08 199.69 512 256 512s109.03-21.92 144.72-60.14L503.4 341.83a31.966 31.966 0 0 0 5.94-34.58zM256 416c-53.02 0-96-64-96-64s42.98-64 96-64 96 64 96 64-42.98 64-96 64zm0-96c-17.67 0-32 14.33-32 32s14.33 32 32 32 32-14.33 32-32-14.33-32-32-32z"/></svg>
