<!--
  #%L
  prolobjectlink-jpp-javax
  %%
  Copyright (C) 2020 Prolobjectlink Project
  %%
  This program is free software: you can redistribute it and/or modify
  it under the terms of the GNU Lesser General Public License as
  published by the Free Software Foundation, either version 2.1 of the
  License, or (at your option) any later version.
  
  This program is distributed in the hope that it will be useful,
  but WITHOUT ANY WARRANTY; without even the implied warranty of
  MERCHANTABILITY or FITNESS FOR A PARTICULAR PURPOSE.  See the
  GNU General Lesser Public License for more details.
  
  You should have received a copy of the GNU General Lesser Public
  License along with this program.  If not, see
  <http://www.gnu.org/licenses/lgpl-2.1.html>.
  #L%
  -->
<svg xmlns="http://www.w3.org/2000/svg" viewBox="0 0 576 512"><path d="M384 480h192V363.778a95.998 95.998 0 0 0-14.833-51.263L398.127 54.368A48 48 0 0 0 357.544 32H24C10.745 32 0 42.745 0 56v16c0 30.928 25.072 56 56 56h229.981c12.844 0 21.556 13.067 16.615 24.923l-21.41 51.385A32 32 0 0 1 251.648 224H128c-35.346 0-64 28.654-64 64v8c0 13.255 10.745 24 24 24h147.406a47.995 47.995 0 0 1 25.692 7.455l111.748 70.811A24.001 24.001 0 0 1 384 418.539V480z"/></svg>
