<!--
  #%L
  prolobjectlink-jpp-javax
  %%
  Copyright (C) 2020 Prolobjectlink Project
  %%
  This program is free software: you can redistribute it and/or modify
  it under the terms of the GNU Lesser General Public License as
  published by the Free Software Foundation, either version 2.1 of the
  License, or (at your option) any later version.
  
  This program is distributed in the hope that it will be useful,
  but WITHOUT ANY WARRANTY; without even the implied warranty of
  MERCHANTABILITY or FITNESS FOR A PARTICULAR PURPOSE.  See the
  GNU General Lesser Public License for more details.
  
  You should have received a copy of the GNU General Lesser Public
  License along with this program.  If not, see
  <http://www.gnu.org/licenses/lgpl-2.1.html>.
  #L%
  -->
<svg xmlns="http://www.w3.org/2000/svg" viewBox="0 0 512 512"><path d="M164.07 148.1H12a12 12 0 0 1-12-12v-80a36 36 0 0 1 36-36h104a36 36 0 0 1 36 36v80a11.89 11.89 0 0 1-11.93 12zm347.93-12V56a36 36 0 0 0-36-36H372a36 36 0 0 0-36 36v80a12 12 0 0 0 12 12h152a11.89 11.89 0 0 0 12-11.9zm-164 44a12 12 0 0 0-12 12v52c0 128.1-160 127.9-160 0v-52a12 12 0 0 0-12-12H12.1a12 12 0 0 0-12 12.1c.1 21.4.6 40.3 0 53.3 0 150.6 136.17 246.6 256.75 246.6s255-96 255-246.7c-.6-12.8-.2-33 0-53.2a12 12 0 0 0-12-12.1z"/></svg>
