<!--
  #%L
  prolobjectlink-jpp-javax
  %%
  Copyright (C) 2020 Prolobjectlink Project
  %%
  This program is free software: you can redistribute it and/or modify
  it under the terms of the GNU Lesser General Public License as
  published by the Free Software Foundation, either version 2.1 of the
  License, or (at your option) any later version.
  
  This program is distributed in the hope that it will be useful,
  but WITHOUT ANY WARRANTY; without even the implied warranty of
  MERCHANTABILITY or FITNESS FOR A PARTICULAR PURPOSE.  See the
  GNU General Lesser Public License for more details.
  
  You should have received a copy of the GNU General Lesser Public
  License along with this program.  If not, see
  <http://www.gnu.org/licenses/lgpl-2.1.html>.
  #L%
  -->
<svg xmlns="http://www.w3.org/2000/svg" viewBox="0 0 448 512"><path d="M128 184c0-30.879 25.122-56 56-56h136V56c0-13.255-10.745-24-24-24h-80.61C204.306 12.89 183.637 0 160 0s-44.306 12.89-55.39 32H24C10.745 32 0 42.745 0 56v336c0 13.255 10.745 24 24 24h104V184zm32-144c13.255 0 24 10.745 24 24s-10.745 24-24 24-24-10.745-24-24 10.745-24 24-24zm184 248h104v200c0 13.255-10.745 24-24 24H184c-13.255 0-24-10.745-24-24V184c0-13.255 10.745-24 24-24h136v104c0 13.2 10.8 24 24 24zm104-38.059V256h-96v-96h6.059a24 24 0 0 1 16.97 7.029l65.941 65.941a24.002 24.002 0 0 1 7.03 16.971z"/></svg>
