<!--
  #%L
  prolobjectlink-jpp-javax
  %%
  Copyright (C) 2020 Prolobjectlink Project
  %%
  This program is free software: you can redistribute it and/or modify
  it under the terms of the GNU Lesser General Public License as
  published by the Free Software Foundation, either version 2.1 of the
  License, or (at your option) any later version.
  
  This program is distributed in the hope that it will be useful,
  but WITHOUT ANY WARRANTY; without even the implied warranty of
  MERCHANTABILITY or FITNESS FOR A PARTICULAR PURPOSE.  See the
  GNU General Lesser Public License for more details.
  
  You should have received a copy of the GNU General Lesser Public
  License along with this program.  If not, see
  <http://www.gnu.org/licenses/lgpl-2.1.html>.
  #L%
  -->
<svg xmlns="http://www.w3.org/2000/svg" viewBox="0 0 496 512"><path d="M248 8C111.03 8 0 119.03 0 256s111.03 248 248 248 248-111.03 248-248S384.97 8 248 8zm184 248c0 31.93-8.2 61.97-22.57 88.17L280 240.63V74.97c86.23 15.21 152 90.5 152 181.03zM216 437.03c-33.86-5.97-64.49-21.2-89.29-43.02L216 322.57v114.46zm64-114.46L369.29 394c-24.8 21.82-55.43 37.05-89.29 43.02V322.57zm-64-247.6v165.66L86.57 344.17C72.2 317.97 64 287.93 64 256c0-90.53 65.77-165.82 152-181.03z"/></svg>
