<!--
  #%L
  prolobjectlink-jpp-javax
  %%
  Copyright (C) 2020 Prolobjectlink Project
  %%
  This program is free software: you can redistribute it and/or modify
  it under the terms of the GNU Lesser General Public License as
  published by the Free Software Foundation, either version 2.1 of the
  License, or (at your option) any later version.
  
  This program is distributed in the hope that it will be useful,
  but WITHOUT ANY WARRANTY; without even the implied warranty of
  MERCHANTABILITY or FITNESS FOR A PARTICULAR PURPOSE.  See the
  GNU General Lesser Public License for more details.
  
  You should have received a copy of the GNU General Lesser Public
  License along with this program.  If not, see
  <http://www.gnu.org/licenses/lgpl-2.1.html>.
  #L%
  -->
<svg xmlns="http://www.w3.org/2000/svg" viewBox="0 0 384 512"><path d="M256 144V32c0-17.673 14.327-32 32-32s32 14.327 32 32v112h-64zm112 16H16c-8.837 0-16 7.163-16 16v32c0 8.837 7.163 16 16 16h16v32c0 77.406 54.969 141.971 128 156.796V512h64v-99.204c73.031-14.825 128-79.39 128-156.796v-32h16c8.837 0 16-7.163 16-16v-32c0-8.837-7.163-16-16-16zm-240-16V32c0-17.673-14.327-32-32-32S64 14.327 64 32v112h64z"/></svg>
