<!--
  #%L
  prolobjectlink-jpp-javax
  %%
  Copyright (C) 2020 Prolobjectlink Project
  %%
  This program is free software: you can redistribute it and/or modify
  it under the terms of the GNU Lesser General Public License as
  published by the Free Software Foundation, either version 2.1 of the
  License, or (at your option) any later version.
  
  This program is distributed in the hope that it will be useful,
  but WITHOUT ANY WARRANTY; without even the implied warranty of
  MERCHANTABILITY or FITNESS FOR A PARTICULAR PURPOSE.  See the
  GNU General Lesser Public License for more details.
  
  You should have received a copy of the GNU General Lesser Public
  License along with this program.  If not, see
  <http://www.gnu.org/licenses/lgpl-2.1.html>.
  #L%
  -->
<svg xmlns="http://www.w3.org/2000/svg" viewBox="0 0 512 512"><path d="M285.363 207.475c0 18.6-9.831 28.431-28.431 28.431h-29.876v-56.14h23.378c28.668 0 34.929 8.773 34.929 27.709zM504 256c0 136.967-111.033 248-248 248S8 392.967 8 256 119.033 8 256 8s248 111.033 248 248zM363.411 360.414c-46.729-84.825-43.299-78.636-44.702-80.98 23.432-15.172 37.945-42.979 37.945-74.486 0-54.244-31.5-89.252-105.498-89.252h-70.667c-13.255 0-24 10.745-24 24V372c0 13.255 10.745 24 24 24h22.567c13.255 0 24-10.745 24-24v-71.663h25.556l44.129 82.937a24.001 24.001 0 0 0 21.188 12.727h24.464c18.261-.001 29.829-19.591 21.018-35.587z"/></svg>
