<!--
  #%L
  prolobjectlink-jpp-javax
  %%
  Copyright (C) 2020 Prolobjectlink Project
  %%
  This program is free software: you can redistribute it and/or modify
  it under the terms of the GNU Lesser General Public License as
  published by the Free Software Foundation, either version 2.1 of the
  License, or (at your option) any later version.
  
  This program is distributed in the hope that it will be useful,
  but WITHOUT ANY WARRANTY; without even the implied warranty of
  MERCHANTABILITY or FITNESS FOR A PARTICULAR PURPOSE.  See the
  GNU General Lesser Public License for more details.
  
  You should have received a copy of the GNU General Lesser Public
  License along with this program.  If not, see
  <http://www.gnu.org/licenses/lgpl-2.1.html>.
  #L%
  -->
<svg xmlns="http://www.w3.org/2000/svg" viewBox="0 0 384 512"><path d="M239.36 320C324.48 320 384 260.542 384 175.071S324.48 32 239.36 32H76c-6.627 0-12 5.373-12 12v206.632H12c-6.627 0-12 5.373-12 12V308c0 6.627 5.373 12 12 12h52v32H12c-6.627 0-12 5.373-12 12v40c0 6.627 5.373 12 12 12h52v52c0 6.627 5.373 12 12 12h58.56c6.627 0 12-5.373 12-12v-52H308c6.627 0 12-5.373 12-12v-40c0-6.627-5.373-12-12-12H146.56v-32h92.8zm-92.8-219.252h78.72c46.72 0 74.88 29.11 74.88 74.323 0 45.832-28.16 75.561-76.16 75.561h-77.44V100.748z"/></svg>
