<!--
  #%L
  prolobjectlink-jpp-javax
  %%
  Copyright (C) 2020 Prolobjectlink Project
  %%
  This program is free software: you can redistribute it and/or modify
  it under the terms of the GNU Lesser General Public License as
  published by the Free Software Foundation, either version 2.1 of the
  License, or (at your option) any later version.
  
  This program is distributed in the hope that it will be useful,
  but WITHOUT ANY WARRANTY; without even the implied warranty of
  MERCHANTABILITY or FITNESS FOR A PARTICULAR PURPOSE.  See the
  GNU General Lesser Public License for more details.
  
  You should have received a copy of the GNU General Lesser Public
  License along with this program.  If not, see
  <http://www.gnu.org/licenses/lgpl-2.1.html>.
  #L%
  -->
<svg xmlns="http://www.w3.org/2000/svg" viewBox="0 0 448 512"><path d="M448 80v352c0 26.51-21.49 48-48 48H48c-26.51 0-48-21.49-48-48V80c0-26.51 21.49-48 48-48h352c26.51 0 48 21.49 48 48zM304 296c-14.562 0-27.823 5.561-37.783 14.671l-67.958-40.775a56.339 56.339 0 0 0 0-27.793l67.958-40.775C276.177 210.439 289.438 216 304 216c30.928 0 56-25.072 56-56s-25.072-56-56-56-56 25.072-56 56c0 4.797.605 9.453 1.74 13.897l-67.958 40.775C171.823 205.561 158.562 200 144 200c-30.928 0-56 25.072-56 56s25.072 56 56 56c14.562 0 27.823-5.561 37.783-14.671l67.958 40.775a56.088 56.088 0 0 0-1.74 13.897c0 30.928 25.072 56 56 56s56-25.072 56-56C360 321.072 334.928 296 304 296z"/></svg>
