<!--
  #%L
  prolobjectlink-jpp-javax
  %%
  Copyright (C) 2020 Prolobjectlink Project
  %%
  This program is free software: you can redistribute it and/or modify
  it under the terms of the GNU Lesser General Public License as
  published by the Free Software Foundation, either version 2.1 of the
  License, or (at your option) any later version.
  
  This program is distributed in the hope that it will be useful,
  but WITHOUT ANY WARRANTY; without even the implied warranty of
  MERCHANTABILITY or FITNESS FOR A PARTICULAR PURPOSE.  See the
  GNU General Lesser Public License for more details.
  
  You should have received a copy of the GNU General Lesser Public
  License along with this program.  If not, see
  <http://www.gnu.org/licenses/lgpl-2.1.html>.
  #L%
  -->
<svg xmlns="http://www.w3.org/2000/svg" viewBox="0 0 384 512"><path d="M0 64v384c0 35.3 28.7 64 64 64h256c35.3 0 64-28.7 64-64V128L256 0H64C28.7 0 0 28.7 0 64zm224 192h-64v-64h64v64zm96 0h-64v-64h32c17.7 0 32 14.3 32 32v32zm-64 128h64v32c0 17.7-14.3 32-32 32h-32v-64zm-96 0h64v64h-64v-64zm-96 0h64v64H96c-17.7 0-32-14.3-32-32v-32zm0-96h256v64H64v-64zm0-64c0-17.7 14.3-32 32-32h32v64H64v-32z"/></svg>
