<!--
  #%L
  prolobjectlink-jpp-javax
  %%
  Copyright (C) 2020 Prolobjectlink Project
  %%
  This program is free software: you can redistribute it and/or modify
  it under the terms of the GNU Lesser General Public License as
  published by the Free Software Foundation, either version 2.1 of the
  License, or (at your option) any later version.
  
  This program is distributed in the hope that it will be useful,
  but WITHOUT ANY WARRANTY; without even the implied warranty of
  MERCHANTABILITY or FITNESS FOR A PARTICULAR PURPOSE.  See the
  GNU General Lesser Public License for more details.
  
  You should have received a copy of the GNU General Lesser Public
  License along with this program.  If not, see
  <http://www.gnu.org/licenses/lgpl-2.1.html>.
  #L%
  -->
<svg xmlns="http://www.w3.org/2000/svg" viewBox="0 0 448 512"><path d="M439.15 453.06L297.17 384l141.99-69.06c7.9-3.95 11.11-13.56 7.15-21.46L432 264.85c-3.95-7.9-13.56-11.11-21.47-7.16L224 348.41 37.47 257.69c-7.9-3.95-17.51-.75-21.47 7.16L1.69 293.48c-3.95 7.9-.75 17.51 7.15 21.46L150.83 384 8.85 453.06c-7.9 3.95-11.11 13.56-7.15 21.47l14.31 28.63c3.95 7.9 13.56 11.11 21.47 7.15L224 419.59l186.53 90.72c7.9 3.95 17.51.75 21.47-7.15l14.31-28.63c3.95-7.91.74-17.52-7.16-21.47zM150 237.28l-5.48 25.87c-2.67 12.62 5.42 24.85 16.45 24.85h126.08c11.03 0 19.12-12.23 16.45-24.85l-5.5-25.87c41.78-22.41 70-62.75 70-109.28C368 57.31 303.53 0 224 0S80 57.31 80 128c0 46.53 28.22 86.87 70 109.28zM280 112c17.65 0 32 14.35 32 32s-14.35 32-32 32-32-14.35-32-32 14.35-32 32-32zm-112 0c17.65 0 32 14.35 32 32s-14.35 32-32 32-32-14.35-32-32 14.35-32 32-32z"/></svg>
