<!--
  #%L
  prolobjectlink-jpp-javax
  %%
  Copyright (C) 2020 Prolobjectlink Project
  %%
  This program is free software: you can redistribute it and/or modify
  it under the terms of the GNU Lesser General Public License as
  published by the Free Software Foundation, either version 2.1 of the
  License, or (at your option) any later version.
  
  This program is distributed in the hope that it will be useful,
  but WITHOUT ANY WARRANTY; without even the implied warranty of
  MERCHANTABILITY or FITNESS FOR A PARTICULAR PURPOSE.  See the
  GNU General Lesser Public License for more details.
  
  You should have received a copy of the GNU General Lesser Public
  License along with this program.  If not, see
  <http://www.gnu.org/licenses/lgpl-2.1.html>.
  #L%
  -->
<svg xmlns="http://www.w3.org/2000/svg" viewBox="0 0 512 512"><path d="M496 448h-16V304a16 16 0 0 0-16-16h-48a16 16 0 0 0-14.29 8.83l-16 32A16 16 0 0 0 400 352h16v96h-16a16 16 0 0 0-16 16v32a16 16 0 0 0 16 16h96a16 16 0 0 0 16-16v-32a16 16 0 0 0-16-16zM336 64h-67a16 16 0 0 0-13.14 6.87l-79.9 115-79.9-115A16 16 0 0 0 83 64H16A16 16 0 0 0 0 80v48a16 16 0 0 0 16 16h33.48l77.81 112-77.81 112H16a16 16 0 0 0-16 16v48a16 16 0 0 0 16 16h67a16 16 0 0 0 13.14-6.87l79.9-115 79.9 115A16 16 0 0 0 269 448h67a16 16 0 0 0 16-16v-48a16 16 0 0 0-16-16h-33.48l-77.81-112 77.81-112H336a16 16 0 0 0 16-16V80a16 16 0 0 0-16-16z"/></svg>
