<!--
  #%L
  prolobjectlink-jpp-javax
  %%
  Copyright (C) 2020 Prolobjectlink Project
  %%
  This program is free software: you can redistribute it and/or modify
  it under the terms of the GNU Lesser General Public License as
  published by the Free Software Foundation, either version 2.1 of the
  License, or (at your option) any later version.
  
  This program is distributed in the hope that it will be useful,
  but WITHOUT ANY WARRANTY; without even the implied warranty of
  MERCHANTABILITY or FITNESS FOR A PARTICULAR PURPOSE.  See the
  GNU General Lesser Public License for more details.
  
  You should have received a copy of the GNU General Lesser Public
  License along with this program.  If not, see
  <http://www.gnu.org/licenses/lgpl-2.1.html>.
  #L%
  -->
<svg xmlns="http://www.w3.org/2000/svg" viewBox="0 0 256 512"><path d="M224 96c0-53.019-42.981-96-96-96S32 42.981 32 96v203.347C12.225 321.756.166 351.136.002 383.333c-.359 70.303 56.787 128.176 127.089 128.664.299.002.61.003.909.003 70.698 0 128-57.304 128-128 0-32.459-12.088-62.09-32-84.653V96zm-96 368l-.576-.002c-43.86-.304-79.647-36.544-79.423-80.42.173-33.98 19.266-51.652 31.999-66.08V96c0-26.467 21.533-48 48-48s48 21.533 48 48v221.498c12.63 14.312 32 32.164 32 66.502 0 44.112-35.888 80-80 80zm64-80c0 35.346-28.654 64-64 64s-64-28.654-64-64c0-23.685 12.876-44.349 32-55.417V96c0-17.673 14.327-32 32-32s32 14.327 32 32v232.583c19.124 11.068 32 31.732 32 55.417z"/></svg>
