<!--
  #%L
  prolobjectlink-jpp-javax
  %%
  Copyright (C) 2020 Prolobjectlink Project
  %%
  This program is free software: you can redistribute it and/or modify
  it under the terms of the GNU Lesser General Public License as
  published by the Free Software Foundation, either version 2.1 of the
  License, or (at your option) any later version.
  
  This program is distributed in the hope that it will be useful,
  but WITHOUT ANY WARRANTY; without even the implied warranty of
  MERCHANTABILITY or FITNESS FOR A PARTICULAR PURPOSE.  See the
  GNU General Lesser Public License for more details.
  
  You should have received a copy of the GNU General Lesser Public
  License along with this program.  If not, see
  <http://www.gnu.org/licenses/lgpl-2.1.html>.
  #L%
  -->
<svg xmlns="http://www.w3.org/2000/svg" viewBox="0 0 576 512"><path d="M384 64H192C85.961 64 0 149.961 0 256s85.961 192 192 192h192c106.039 0 192-85.961 192-192S490.039 64 384 64zM64 256c0-70.741 57.249-128 128-128 70.741 0 128 57.249 128 128 0 70.741-57.249 128-128 128-70.741 0-128-57.249-128-128zm320 128h-48.905c65.217-72.858 65.236-183.12 0-256H384c70.741 0 128 57.249 128 128 0 70.74-57.249 128-128 128z"/></svg>
