<!--
  #%L
  prolobjectlink-jpp-javax
  %%
  Copyright (C) 2020 Prolobjectlink Project
  %%
  This program is free software: you can redistribute it and/or modify
  it under the terms of the GNU Lesser General Public License as
  published by the Free Software Foundation, either version 2.1 of the
  License, or (at your option) any later version.
  
  This program is distributed in the hope that it will be useful,
  but WITHOUT ANY WARRANTY; without even the implied warranty of
  MERCHANTABILITY or FITNESS FOR A PARTICULAR PURPOSE.  See the
  GNU General Lesser Public License for more details.
  
  You should have received a copy of the GNU General Lesser Public
  License along with this program.  If not, see
  <http://www.gnu.org/licenses/lgpl-2.1.html>.
  #L%
  -->
<svg xmlns="http://www.w3.org/2000/svg" viewBox="0 0 512 512"><path d="M288 64c17.7 0 32-14.3 32-32S305.7 0 288 0s-32 14.3-32 32 14.3 32 32 32zm223.5-12.1c-2.3-8.6-11-13.6-19.6-11.3l-480 128c-8.5 2.3-13.6 11-11.3 19.6C2.5 195.3 8.9 200 16 200c1.4 0 2.8-.2 4.1-.5L240 140.8V224H64c-17.7 0-32 14.3-32 32v224c0 17.7 14.3 32 32 32h384c17.7 0 32-14.3 32-32V256c0-17.7-14.3-32-32-32H272v-91.7l228.1-60.8c8.6-2.3 13.6-11.1 11.4-19.6zM176 384H80v-96h96v96zm160-96h96v96h-96v-96zm-32 0v96h-96v-96h96zM192 96c17.7 0 32-14.3 32-32s-14.3-32-32-32-32 14.3-32 32 14.3 32 32 32z"/></svg>
