<!--
  #%L
  prolobjectlink-jpp-javax
  %%
  Copyright (C) 2020 Prolobjectlink Project
  %%
  This program is free software: you can redistribute it and/or modify
  it under the terms of the GNU Lesser General Public License as
  published by the Free Software Foundation, either version 2.1 of the
  License, or (at your option) any later version.
  
  This program is distributed in the hope that it will be useful,
  but WITHOUT ANY WARRANTY; without even the implied warranty of
  MERCHANTABILITY or FITNESS FOR A PARTICULAR PURPOSE.  See the
  GNU General Lesser Public License for more details.
  
  You should have received a copy of the GNU General Lesser Public
  License along with this program.  If not, see
  <http://www.gnu.org/licenses/lgpl-2.1.html>.
  #L%
  -->
<svg xmlns="http://www.w3.org/2000/svg" viewBox="0 0 480 512"><path d="M468 0h-79c-10.7 0-16 12.9-8.5 20.5l16.9 16.9-80.7 80.7C294.5 104.1 268.2 96 240 96c-28.2 0-54.5 8.1-76.7 22.1l-16.5-16.5 19.8-19.8c4.7-4.7 4.7-12.3 0-17l-28.3-28.3c-4.7-4.7-12.3-4.7-17 0l-19.8 19.8-19-19 16.9-16.9C107.1 12.9 101.7 0 91 0H12C5.4 0 0 5.4 0 12v79c0 10.7 12.9 16 20.5 8.5l16.9-16.9 19 19-19.8 19.8c-4.7 4.7-4.7 12.3 0 17l28.3 28.3c4.7 4.7 12.3 4.7 17 0l19.8-19.8 16.5 16.5C104.1 185.5 96 211.8 96 240c0 68.5 47.9 125.9 112 140.4V408h-36c-6.6 0-12 5.4-12 12v40c0 6.6 5.4 12 12 12h36v28c0 6.6 5.4 12 12 12h40c6.6 0 12-5.4 12-12v-28h36c6.6 0 12-5.4 12-12v-40c0-6.6-5.4-12-12-12h-36v-27.6c64.1-14.6 112-71.9 112-140.4 0-28.2-8.1-54.5-22.1-76.7l80.7-80.7 16.9 16.9c7.6 7.6 20.5 2.2 20.5-8.5V12c0-6.6-5.4-12-12-12zM240 320c-44.1 0-80-35.9-80-80s35.9-80 80-80 80 35.9 80 80-35.9 80-80 80z"/></svg>
