<!--
  #%L
  prolobjectlink-jpp-javax
  %%
  Copyright (C) 2020 Prolobjectlink Project
  %%
  This program is free software: you can redistribute it and/or modify
  it under the terms of the GNU Lesser General Public License as
  published by the Free Software Foundation, either version 2.1 of the
  License, or (at your option) any later version.
  
  This program is distributed in the hope that it will be useful,
  but WITHOUT ANY WARRANTY; without even the implied warranty of
  MERCHANTABILITY or FITNESS FOR A PARTICULAR PURPOSE.  See the
  GNU General Lesser Public License for more details.
  
  You should have received a copy of the GNU General Lesser Public
  License along with this program.  If not, see
  <http://www.gnu.org/licenses/lgpl-2.1.html>.
  #L%
  -->
<svg xmlns="http://www.w3.org/2000/svg" viewBox="0 0 512 512"><path d="M304.083 405.907c4.686 4.686 4.686 12.284 0 16.971l-44.674 44.674c-59.263 59.262-155.693 59.266-214.961 0-59.264-59.265-59.264-155.696 0-214.96l44.675-44.675c4.686-4.686 12.284-4.686 16.971 0l39.598 39.598c4.686 4.686 4.686 12.284 0 16.971l-44.675 44.674c-28.072 28.073-28.072 73.75 0 101.823 28.072 28.072 73.75 28.073 101.824 0l44.674-44.674c4.686-4.686 12.284-4.686 16.971 0l39.597 39.598zm-56.568-260.216c4.686 4.686 12.284 4.686 16.971 0l44.674-44.674c28.072-28.075 73.75-28.073 101.824 0 28.072 28.073 28.072 73.75 0 101.823l-44.675 44.674c-4.686 4.686-4.686 12.284 0 16.971l39.598 39.598c4.686 4.686 12.284 4.686 16.971 0l44.675-44.675c59.265-59.265 59.265-155.695 0-214.96-59.266-59.264-155.695-59.264-214.961 0l-44.674 44.674c-4.686 4.686-4.686 12.284 0 16.971l39.597 39.598zm234.828 359.28l22.627-22.627c9.373-9.373 9.373-24.569 0-33.941L63.598 7.029c-9.373-9.373-24.569-9.373-33.941 0L7.029 29.657c-9.373 9.373-9.373 24.569 0 33.941l441.373 441.373c9.373 9.372 24.569 9.372 33.941 0z"/></svg>
