<!--
  #%L
  prolobjectlink-jpp-javax
  %%
  Copyright (C) 2020 Prolobjectlink Project
  %%
  This program is free software: you can redistribute it and/or modify
  it under the terms of the GNU Lesser General Public License as
  published by the Free Software Foundation, either version 2.1 of the
  License, or (at your option) any later version.
  
  This program is distributed in the hope that it will be useful,
  but WITHOUT ANY WARRANTY; without even the implied warranty of
  MERCHANTABILITY or FITNESS FOR A PARTICULAR PURPOSE.  See the
  GNU General Lesser Public License for more details.
  
  You should have received a copy of the GNU General Lesser Public
  License along with this program.  If not, see
  <http://www.gnu.org/licenses/lgpl-2.1.html>.
  #L%
  -->
<svg xmlns="http://www.w3.org/2000/svg" viewBox="0 0 640 512"><path d="M633.8 458.1L362.3 248.3C412.1 230.7 448 183.8 448 128 448 57.3 390.7 0 320 0c-67.1 0-121.5 51.8-126.9 117.4L45.5 3.4C38.5-2 28.5-.8 23 6.2L3.4 31.4c-5.4 7-4.2 17 2.8 22.4l588.4 454.7c7 5.4 17 4.2 22.5-2.8l19.6-25.3c5.4-6.8 4.1-16.9-2.9-22.3zM96 422.4V464c0 26.5 21.5 48 48 48h350.2L207.4 290.3C144.2 301.3 96 356 96 422.4z"/></svg>
