<!--
  #%L
  prolobjectlink-jpp-javax
  %%
  Copyright (C) 2020 Prolobjectlink Project
  %%
  This program is free software: you can redistribute it and/or modify
  it under the terms of the GNU Lesser General Public License as
  published by the Free Software Foundation, either version 2.1 of the
  License, or (at your option) any later version.
  
  This program is distributed in the hope that it will be useful,
  but WITHOUT ANY WARRANTY; without even the implied warranty of
  MERCHANTABILITY or FITNESS FOR A PARTICULAR PURPOSE.  See the
  GNU General Lesser Public License for more details.
  
  You should have received a copy of the GNU General Lesser Public
  License along with this program.  If not, see
  <http://www.gnu.org/licenses/lgpl-2.1.html>.
  #L%
  -->
<svg xmlns="http://www.w3.org/2000/svg" viewBox="0 0 448 512"><path d="M57.78 288h82.36c22.51 19.68 51.62 32 83.86 32s61.35-12.32 83.86-32h82.36a16 16 0 0 0 14.28-23.18c-15.23-29.85-31.28-62.23-42.15-95.54C354.78 146.09 352 121.59 352 97.2V48L224 0 96 48v49.2c0 24.39-2.75 48.89-10.33 72.08C74.78 202.59 58.73 235 43.5 264.82A16 16 0 0 0 57.78 288zM184 71.67a5 5 0 0 1 5-5h21.67V45a5 5 0 0 1 5-5h16.66a5 5 0 0 1 5 5v21.67H259a5 5 0 0 1 5 5v16.66a5 5 0 0 1-5 5h-21.67V115a5 5 0 0 1-5 5h-16.66a5 5 0 0 1-5-5V93.33H189a5 5 0 0 1-5-5zM144 160h160v32a80 80 0 0 1-160 0zm175.41 160L224 415.39 128.59 320C57.1 323.1 0 381.6 0 453.79A58.21 58.21 0 0 0 58.21 512h331.58A58.21 58.21 0 0 0 448 453.79C448 381.6 390.9 323.1 319.41 320z"/></svg>
