<!--
  #%L
  prolobjectlink-jpp-javax
  %%
  Copyright (C) 2020 Prolobjectlink Project
  %%
  This program is free software: you can redistribute it and/or modify
  it under the terms of the GNU Lesser General Public License as
  published by the Free Software Foundation, either version 2.1 of the
  License, or (at your option) any later version.
  
  This program is distributed in the hope that it will be useful,
  but WITHOUT ANY WARRANTY; without even the implied warranty of
  MERCHANTABILITY or FITNESS FOR A PARTICULAR PURPOSE.  See the
  GNU General Lesser Public License for more details.
  
  You should have received a copy of the GNU General Lesser Public
  License along with this program.  If not, see
  <http://www.gnu.org/licenses/lgpl-2.1.html>.
  #L%
  -->
<svg xmlns="http://www.w3.org/2000/svg" viewBox="0 0 640 512"><path d="M608 64H32C14.33 64 0 78.33 0 96v320c0 17.67 14.33 32 32 32h160.22c25.19 0 48.03-14.77 58.36-37.74l27.74-61.64C286.21 331.08 302.35 320 320 320s33.79 11.08 41.68 28.62l27.74 61.64C399.75 433.23 422.6 448 447.78 448H608c17.67 0 32-14.33 32-32V96c0-17.67-14.33-32-32-32zM160 304c-35.35 0-64-28.65-64-64s28.65-64 64-64 64 28.65 64 64-28.65 64-64 64zm320 0c-35.35 0-64-28.65-64-64s28.65-64 64-64 64 28.65 64 64-28.65 64-64 64z"/></svg>
