<!--
  #%L
  prolobjectlink-jpp-javax
  %%
  Copyright (C) 2020 Prolobjectlink Project
  %%
  This program is free software: you can redistribute it and/or modify
  it under the terms of the GNU Lesser General Public License as
  published by the Free Software Foundation, either version 2.1 of the
  License, or (at your option) any later version.
  
  This program is distributed in the hope that it will be useful,
  but WITHOUT ANY WARRANTY; without even the implied warranty of
  MERCHANTABILITY or FITNESS FOR A PARTICULAR PURPOSE.  See the
  GNU General Lesser Public License for more details.
  
  You should have received a copy of the GNU General Lesser Public
  License along with this program.  If not, see
  <http://www.gnu.org/licenses/lgpl-2.1.html>.
  #L%
  -->
<svg xmlns="http://www.w3.org/2000/svg" viewBox="0 0 448 512"><path d="M292.6 171.1L249.7 214l-.3-86 43.2 43.1m-43.2 219.8l43.1-43.1-42.9-42.9-.2 86zM416 259.4C416 465 344.1 512 230.9 512S32 465 32 259.4 115.4 0 228.6 0 416 53.9 416 259.4zm-158.5 0l79.4-88.6L211.8 36.5v176.9L138 139.6l-27 26.9 92.7 93-92.7 93 26.9 26.9 73.8-73.8 2.3 170 127.4-127.5-83.9-88.7z"/></svg>
