<!--
  #%L
  prolobjectlink-jpp-javax
  %%
  Copyright (C) 2020 Prolobjectlink Project
  %%
  This program is free software: you can redistribute it and/or modify
  it under the terms of the GNU Lesser General Public License as
  published by the Free Software Foundation, either version 2.1 of the
  License, or (at your option) any later version.
  
  This program is distributed in the hope that it will be useful,
  but WITHOUT ANY WARRANTY; without even the implied warranty of
  MERCHANTABILITY or FITNESS FOR A PARTICULAR PURPOSE.  See the
  GNU General Lesser Public License for more details.
  
  You should have received a copy of the GNU General Lesser Public
  License along with this program.  If not, see
  <http://www.gnu.org/licenses/lgpl-2.1.html>.
  #L%
  -->
<svg xmlns="http://www.w3.org/2000/svg" viewBox="0 0 448 512"><path d="M444.373 359.424c0 7.168-6.144 10.24-13.312 13.312-28.672 12.288-59.392 23.552-92.16 23.552-46.08 0-67.584-28.672-122.88-28.672-39.936 0-81.92 14.336-115.712 29.696-2.048 1.024-4.096 1.024-6.144 2.048v77.824c0 21.405-16.122 34.816-33.792 34.816-19.456 0-34.816-15.36-34.816-34.816V102.4C12.245 92.16 3.029 75.776 3.029 57.344 3.029 25.6 28.629 0 60.373 0s57.344 25.6 57.344 57.344c0 18.432-8.192 34.816-22.528 45.056v31.744c4.124-1.374 58.768-28.672 114.688-28.672 65.27 0 97.676 27.648 126.976 27.648 38.912 0 81.92-27.648 92.16-27.648 8.192 0 15.36 6.144 15.36 13.312v240.64z"/></svg>
