<!--
  #%L
  prolobjectlink-jpp-javax
  %%
  Copyright (C) 2020 Prolobjectlink Project
  %%
  This program is free software: you can redistribute it and/or modify
  it under the terms of the GNU Lesser General Public License as
  published by the Free Software Foundation, either version 2.1 of the
  License, or (at your option) any later version.
  
  This program is distributed in the hope that it will be useful,
  but WITHOUT ANY WARRANTY; without even the implied warranty of
  MERCHANTABILITY or FITNESS FOR A PARTICULAR PURPOSE.  See the
  GNU General Lesser Public License for more details.
  
  You should have received a copy of the GNU General Lesser Public
  License along with this program.  If not, see
  <http://www.gnu.org/licenses/lgpl-2.1.html>.
  #L%
  -->
<svg xmlns="http://www.w3.org/2000/svg" viewBox="0 0 640 512"><path d="M616 160h-67.3C511.2 70.7 422.9 8 320 8 183 8 72 119 72 256c0 16.4 1.6 32.5 4.7 48H24c-13.3 0-24 10.8-24 24 0 13.3 10.7 24 24 24h67.3c37.5 89.3 125.8 152 228.7 152 137 0 248-111 248-248 0-16.4-1.6-32.5-4.7-48H616c13.3 0 24-10.8 24-24 0-13.3-10.7-24-24-24zm-96 96c0 110.5-89.5 200-200 200-75.7 0-141.6-42-175.5-104H424c13.3 0 24-10.8 24-24 0-13.3-10.7-24-24-24H125.8c-3.8-15.4-5.8-31.4-5.8-48 0-110.5 89.5-200 200-200 75.7 0 141.6 42 175.5 104H216c-13.3 0-24 10.8-24 24 0 13.3 10.7 24 24 24h298.2c3.8 15.4 5.8 31.4 5.8 48zm-304-24h208c13.3 0 24 10.7 24 24 0 13.2-10.7 24-24 24H216c-13.3 0-24-10.7-24-24 0-13.2 10.7-24 24-24z"/></svg>
