<!--
  #%L
  prolobjectlink-jpp-javax
  %%
  Copyright (C) 2020 Prolobjectlink Project
  %%
  This program is free software: you can redistribute it and/or modify
  it under the terms of the GNU Lesser General Public License as
  published by the Free Software Foundation, either version 2.1 of the
  License, or (at your option) any later version.
  
  This program is distributed in the hope that it will be useful,
  but WITHOUT ANY WARRANTY; without even the implied warranty of
  MERCHANTABILITY or FITNESS FOR A PARTICULAR PURPOSE.  See the
  GNU General Lesser Public License for more details.
  
  You should have received a copy of the GNU General Lesser Public
  License along with this program.  If not, see
  <http://www.gnu.org/licenses/lgpl-2.1.html>.
  #L%
  -->
<svg xmlns="http://www.w3.org/2000/svg" viewBox="0 0 496 512"><path d="M214.5 209.6v66.2l33.5 33.5 33.3-33.3v-66.4l-33.4-33.4zM248 8C111 8 0 119 0 256s111 248 248 248 248-111 248-248S385 8 248 8zm145.1 414.4L367 441.6l-26-19.2v-65.5l-33.4-33.4-33.4 33.4v65.5L248 441.6l-26.1-19.2v-65.5l-33.4-33.4-33.5 33.4v65.5l-26.1 19.2-26.1-19.2v-87l59.5-59.5V188l59.5-59.5V52.9l26.1-19.2L274 52.9v75.6l59.5 59.5v87.6l59.7 59.7v87.1z"/></svg>
