<!--
  #%L
  prolobjectlink-jpp-javax
  %%
  Copyright (C) 2020 Prolobjectlink Project
  %%
  This program is free software: you can redistribute it and/or modify
  it under the terms of the GNU Lesser General Public License as
  published by the Free Software Foundation, either version 2.1 of the
  License, or (at your option) any later version.
  
  This program is distributed in the hope that it will be useful,
  but WITHOUT ANY WARRANTY; without even the implied warranty of
  MERCHANTABILITY or FITNESS FOR A PARTICULAR PURPOSE.  See the
  GNU General Lesser Public License for more details.
  
  You should have received a copy of the GNU General Lesser Public
  License along with this program.  If not, see
  <http://www.gnu.org/licenses/lgpl-2.1.html>.
  #L%
  -->
<svg xmlns="http://www.w3.org/2000/svg" viewBox="0 0 496 512"><path d="M248 8C111 8 0 119.1 0 256c0 137 111 248 248 248s248-111 248-248C496 119.1 385 8 248 8zm-80 351.9c-31.4 10.6-58.8 27.3-80 48.2V136c0-22.1 17.9-40 40-40s40 17.9 40 40v223.9zm120-9.9c-12.9-2-26.2-3.1-39.8-3.1-13.8 0-27.2 1.1-40.2 3.1V136c0-22.1 17.9-40 40-40s40 17.9 40 40v214zm120 57.7c-21.2-20.8-48.6-37.4-80-48V136c0-22.1 17.9-40 40-40s40 17.9 40 40v271.7z"/></svg>
