<!--
  #%L
  prolobjectlink-jpp-javax
  %%
  Copyright (C) 2020 Prolobjectlink Project
  %%
  This program is free software: you can redistribute it and/or modify
  it under the terms of the GNU Lesser General Public License as
  published by the Free Software Foundation, either version 2.1 of the
  License, or (at your option) any later version.
  
  This program is distributed in the hope that it will be useful,
  but WITHOUT ANY WARRANTY; without even the implied warranty of
  MERCHANTABILITY or FITNESS FOR A PARTICULAR PURPOSE.  See the
  GNU General Lesser Public License for more details.
  
  You should have received a copy of the GNU General Lesser Public
  License along with this program.  If not, see
  <http://www.gnu.org/licenses/lgpl-2.1.html>.
  #L%
  -->
<svg xmlns="http://www.w3.org/2000/svg" viewBox="0 0 512 512"><path d="M213.86 296H100a100 100 0 0 1 0-200h132.84a40 40 0 0 1 0 80H98c-26.47 0-26.45 40 0 40h113.82a100 100 0 0 1 0 200H40a40 40 0 0 1 0-80h173.86c26.48 0 26.46-40 0-40zM298 416a120.21 120.21 0 0 0 51.11-80h64.55a19.83 19.83 0 0 0 19.66-20V196a19.83 19.83 0 0 0-19.66-20H296.42a60.77 60.77 0 0 0 0-80h136.93c43.44 0 78.65 35.82 78.65 80v160c0 44.18-35.21 80-78.65 80z"/></svg>
