<!--
  #%L
  prolobjectlink-jpp-javax
  %%
  Copyright (C) 2020 Prolobjectlink Project
  %%
  This program is free software: you can redistribute it and/or modify
  it under the terms of the GNU Lesser General Public License as
  published by the Free Software Foundation, either version 2.1 of the
  License, or (at your option) any later version.
  
  This program is distributed in the hope that it will be useful,
  but WITHOUT ANY WARRANTY; without even the implied warranty of
  MERCHANTABILITY or FITNESS FOR A PARTICULAR PURPOSE.  See the
  GNU General Lesser Public License for more details.
  
  You should have received a copy of the GNU General Lesser Public
  License along with this program.  If not, see
  <http://www.gnu.org/licenses/lgpl-2.1.html>.
  #L%
  -->
<svg xmlns="http://www.w3.org/2000/svg" viewBox="0 0 448 512"><path d="M244.6 232.4c0 8.5-4.26 20.49-21.34 20.49h-19.61v-41.47h19.61c17.13 0 21.34 12.36 21.34 20.98zM448 32v448H0V32zM151.3 287.84c0-21.24-12.12-34.54-46.72-44.85-20.57-7.41-26-10.91-26-18.63s7-14.61 20.41-14.61c14.09 0 20.79 8.45 20.79 18.35h30.7l.19-.57c.5-19.57-15.06-41.65-51.12-41.65-23.37 0-52.55 10.75-52.55 38.29 0 19.4 9.25 31.29 50.74 44.37 17.26 6.15 21.91 10.4 21.91 19.48 0 15.2-19.13 14.23-19.47 14.23-20.4 0-25.65-9.1-25.65-21.9h-30.8l-.18.56c-.68 31.32 28.38 45.22 56.63 45.22 29.98 0 51.12-13.55 51.12-38.29zm125.38-55.63c0-25.3-18.43-45.46-53.42-45.46h-51.78v138.18h32.17v-47.36h19.61c30.25 0 53.42-15.95 53.42-45.36zM297.94 325L347 186.78h-31.09L268 325zm106.52-138.22h-31.09L325.46 325h29.94z"/></svg>
