<!--
  #%L
  prolobjectlink-jpp-javax
  %%
  Copyright (C) 2020 Prolobjectlink Project
  %%
  This program is free software: you can redistribute it and/or modify
  it under the terms of the GNU Lesser General Public License as
  published by the Free Software Foundation, either version 2.1 of the
  License, or (at your option) any later version.
  
  This program is distributed in the hope that it will be useful,
  but WITHOUT ANY WARRANTY; without even the implied warranty of
  MERCHANTABILITY or FITNESS FOR A PARTICULAR PURPOSE.  See the
  GNU General Lesser Public License for more details.
  
  You should have received a copy of the GNU General Lesser Public
  License along with this program.  If not, see
  <http://www.gnu.org/licenses/lgpl-2.1.html>.
  #L%
  -->
<svg xmlns="http://www.w3.org/2000/svg" viewBox="0 0 512 512"><path d="M512 256c0 141.2-114.7 256-256 256C114.8 512 0 397.3 0 256S114.7 0 256 0s256 114.7 256 256zm-32 0c0-123.2-100.3-224-224-224C132.5 32 32 132.5 32 256s100.5 224 224 224 224-100.5 224-224zM160.9 124.6l86.9 37.1-37.1 86.9-86.9-37.1 37.1-86.9zm110 169.1l46.6 94h-14.6l-50-100-48.9 100h-14l51.1-106.9-22.3-9.4 6-14 68.6 29.1-6 14.3-16.5-7.1zm-11.8-116.3l68.6 29.4-29.4 68.3L230 246l29.1-68.6zm80.3 42.9l54.6 23.1-23.4 54.3-54.3-23.1 23.1-54.3z"/></svg>
